<?xml version="1.0" encoding="UTF-8" standalone="no"?>
<svg width="3000px" height="754px" viewBox="0 0 3000 754" version="1.1" xmlns="http://www.w3.org/2000/svg" xmlns:xlink="http://www.w3.org/1999/xlink">
    <!-- Generator: Sketch 40.3 (33839) - http://www.bohemiancoding.com/sketch -->
    <title>webpack-logo</title>
    <desc>Created with Sketch.</desc>
    <defs></defs>
    <g id="Page-1" stroke="none" stroke-width="1" fill="none" fill-rule="evenodd">
        <g id="webpack-logo">
            <path d="M658,580.7 L352.8,753.3 L352.8,619 L542.8,514.3 L657.8,580.7 L658,580.7 Z M678.8,561.7 L678.8,201 L567.2,265.4 L567.2,497.4 L678.8,561.8 L678.8,561.7 Z M20.8,580.7 L326,753.3 L326,619 L135.8,514.2 L20.8,580.6 L20.8,580.7 Z M-5.68434189e-14,561.7 L-5.68434189e-14,201 L111.6,265.4 L111.6,497.4 L1.26217745e-29,561.8 L-5.68434189e-14,561.7 Z M13,177.5 L326,0.5 L326,130.5 L125.5,240.6 L123.9,241.6 L12.9,177.4 L13,177.5 Z M665.7,177.5 L352.7,0.5 L352.7,130.5 L553.3,240.5 L554.9,241.5 L665.6,177.5 L665.7,177.5 Z" id="Shape" fill="#8ED6FB"></path>
            <path d="M326,588.3 L138.4,485 L138.4,281 L326,389 L326,588.3 L326,588.3 Z M352.8,588.3 L540.4,485.3 L540.4,280.7 L352.8,389 L352.8,588.3 L352.8,588.3 Z M151,257.3 L339.4,153.7 L527.7,257.2 L339.4,366 L151,257 L151,257.3 Z" id="Shape" fill="#1C78C0"></path>
            <path d="M1117.3,515.3 L1199.8,515.3 L1283.8,235.1 L1203.5,235.1 L1153.7,434.1 L1100.7,235.1 L1031,235.1 L977.4,434.1 L928.1,235.1 L847.8,235.1 L931.4,515.4 L1013.9,515.4 L1065.9,335.9 L1117.4,515.4 L1117.3,515.3 Z M1288.3,376 C1288.3,460 1345.5,522.3 1435.6,522.3 C1505.3,522.3 1542.8,480.5 1553.6,460.7 L1504.6,423.7 C1496.6,435.5 1474.6,458 1436.6,458 C1395.3,458 1365.3,431.2 1363.6,393.7 L1561,393.7 C1561.5,388.3 1561.5,383 1561.5,377.7 C1561.5,286 1512.2,228.1 1425.5,228.1 C1345.5,228.1 1288.2,291.4 1288.2,376.1 L1288.3,376 Z M1365.9,345.4 C1368.9,313.4 1391.5,288.6 1426.4,288.6 C1460.2,288.6 1484.8,311.1 1486.4,345.4 L1366,345.4 L1365.9,345.4 Z M1589.3,515.4 L1659,515.4 L1659,486.4 C1666.6,495.4 1694.5,522.4 1742.2,522.4 C1822.6,522.4 1879.4,461.8 1879.4,375.4 C1879.4,288.7 1826.9,228.2 1746.4,228.2 C1698.4,228.2 1670.4,255 1663.4,264.6 L1663.4,128 L1589.4,128 L1589.4,515.3 L1589.3,515.4 Z M1661.1,376 C1661.1,323.5 1692.1,293.5 1732.9,293.5 C1775.9,293.5 1804.7,327.3 1804.7,376 C1804.7,425.8 1774.7,457 1732.9,457 C1687.9,457 1661.1,420.4 1661.1,376 L1661.1,376 Z M1908.1,615.5 L1982.1,615.5 L1982.1,486.3 C1989.1,495.3 2016.8,522.3 2065.1,522.3 C2145.5,522.3 2198.1,461.7 2198.1,374.9 C2198.1,289.1 2141.1,227.9 2060.8,227.9 C2013,227.9 1985.1,254.9 1977.6,264.4 L1977.6,235 L1908,235 L1908,615.5 L1908.1,615.5 Z M1979.9,374.5 C1979.9,329.9 2006.7,293.5 2051.7,293.5 C2093.5,293.5 2123.5,324.5 2123.5,374.5 C2123.5,423.2 2094.5,456.9 2051.7,456.9 C2011,456.9 1979.9,426.9 1979.9,374.3 L1979.9,374.5 Z M2211.4,428.5 C2211.4,487.5 2259.6,522.3 2316.4,522.3 C2348.6,522.3 2370,512.7 2384.4,497.1 L2389.4,515.4 L2454.7,515.4 L2454.7,338 C2454.7,275.2 2427.9,228 2337.9,228 C2294.9,228 2252.7,244.2 2227.5,261.3 L2255.5,311.7 C2276.3,301 2302,292 2330,292 C2362.7,292 2381,308.5 2381,333.2 L2381,351.4 C2370.7,344.4 2348.7,335.9 2320.3,335.9 C2254.9,335.7 2211.5,373.2 2211.5,428.4 L2211.4,428.5 Z M2285.4,426.3 C2285.4,403.3 2305.1,387.3 2333.4,387.3 C2361.7,387.3 2382.4,401.7 2382.4,426.3 C2382.4,449.9 2361.9,464.9 2334.1,464.9 C2306.3,464.9 2285.3,449.3 2285.3,426.2 L2285.4,426.3 Z M2634.2,456.9 C2587.6,456.9 2554.4,422.9 2554.4,375.4 C2554.4,330.4 2583.9,293.4 2631.6,293.4 C2663.2,293.4 2684.6,308.9 2697,320.2 L2718,258 C2699.8,244.2 2670.8,228 2629.6,228 C2544.4,228 2480.6,290.8 2480.6,376 C2480.6,461.2 2542.8,522.3 2630.1,522.3 C2670.9,522.3 2701.5,505.3 2717.5,492.3 L2697.7,431.8 C2685.3,441.8 2662.7,456.8 2634.4,456.8 L2634.2,456.9 Z M2745.2,515.2 L2819,515.2 L2819,370.6 L2913,515.3 L2999.7,515.3 L2893.7,362 L2992.2,235 L2909.2,235 L2819.2,353 L2819.2,128 L2745.2,128 L2745.2,515.3 L2745.2,515.2 Z" id="Shape" fill="#1A1C1C"></path>
        </g>
    </g>
</svg>